<svg width="349" height="349" viewBox="0 0 349 349" fill="none" xmlns="http://www.w3.org/2000/svg">
<g filter="url(#filter0_d_2091_112)">
<path d="M170.399 319.005C252.474 319.005 319.008 252.507 319.008 170.479C319.008 88.4498 252.474 21.9524 170.399 21.9524C88.3247 21.9524 21.79 88.4498 21.79 170.479C21.79 252.507 88.3247 319.005 170.399 319.005Z" fill="#1D1E1D"/>
<path d="M328.117 153.975C319.857 74.2052 252.403 12 170.399 12C88.3951 12 20.9488 74.2052 12.6885 153.975H328.117Z" fill="#C5312A"/>
<path d="M12.6885 186.982C20.9488 266.751 88.4026 328.956 170.399 328.956C252.396 328.956 319.857 266.751 328.11 186.982H12.6885V186.982Z" fill="#E7E7E9"/>
<path d="M170.398 220.414C197.992 220.414 220.362 198.057 220.362 170.479C220.362 142.9 197.992 120.543 170.398 120.543C142.804 120.543 120.435 142.9 120.435 170.479C120.435 198.057 142.804 220.414 170.398 220.414Z" fill="#1D1E1D"/>
<path d="M206.686 184.907C214.656 164.886 204.878 142.198 184.846 134.232C164.813 126.266 142.113 136.039 134.142 156.06C126.172 176.081 135.95 198.769 155.983 206.735C176.015 214.701 198.716 204.928 206.686 184.907Z" fill="#F7F7F7"/>
<path d="M170.401 196.799C184.945 196.799 196.735 185.015 196.735 170.479C196.735 155.943 184.945 144.16 170.401 144.16C155.857 144.16 144.066 155.943 144.066 170.479C144.066 185.015 155.857 196.799 170.401 196.799Z" fill="#B8B5B5"/>
<path d="M170.401 194.861C183.873 194.861 194.795 183.945 194.795 170.48C194.795 157.015 183.873 146.099 170.401 146.099C156.928 146.099 146.006 157.015 146.006 170.48C146.006 183.945 156.928 194.861 170.401 194.861Z" fill="#F7F7F7"/>
</g>
<defs>
<filter id="filter0_d_2091_112" x="0.688477" y="0" width="347.429" height="348.956" filterUnits="userSpaceOnUse" color-interpolation-filters="sRGB">
<feFlood flood-opacity="0" result="BackgroundImageFix"/>
<feColorMatrix in="SourceAlpha" type="matrix" values="0 0 0 0 0 0 0 0 0 0 0 0 0 0 0 0 0 0 127 0" result="hardAlpha"/>
<feOffset dx="4" dy="4"/>
<feGaussianBlur stdDeviation="8"/>
<feColorMatrix type="matrix" values="0 0 0 0 0.00392157 0 0 0 0 0.109804 0 0 0 0 0.25098 0 0 0 0.2 0"/>
<feBlend mode="normal" in2="BackgroundImageFix" result="effect1_dropShadow_2091_112"/>
<feBlend mode="normal" in="SourceGraphic" in2="effect1_dropShadow_2091_112" result="shape"/>
</filter>
</defs>
</svg>
